Patient4_TMGait_0pt7_01_right_09_EMG.mot
version=1
nRows=30
nColumns=33
inDegrees=no
endheader
time	1LAddLong	2LGlutMax	3LGlutMed	4LIliopsoas	5LSemiMemb	6LBicFemLong	7LRecFem	8LVastMed	9LVastLat	10LGasMed	11LTibAnt	12lTibPost	13LPeroneusLong	14LSol	15LExtDigLong	16LFlexDigLong	17RAddLong	18RGlutMax	19RGlutMed	20RIliopsoas	21RSemiMemb	22RBicFemLong	23RRecFem	24RVastMed	25RVastLat	26RGasMed	27RTibAnt	28RTibPost	29RPeroneusLong	30RSol	31RExtDigLong	32RFlexDigLong
10.973	0.006104	-0.03891	-0.019073	0.009613	0.003815	0.05661	0.25986	-0.00412	0.049744	-0.005493	-0.18188	0.019684	-0.1297	-0.13855	-0.075531	-0.006409	0.049896	-0.17227	0.031281	-0.031433	-0.071106	-0.23605	0.008392	-0.08667	-0.027924	-0.019836	0.38483	-0.002441	-0.19547	0.05188	0.000916	-0.036316
10.974	0.01297	-0.045319	-0.10361	0.004883	0.015411	0.029602	0.26428	-0.005493	0.068512	-0.023041	-0.14557	0.015411	-0.1181	-0.082703	-0.24063	0.001984	0.036774	-0.20874	0.059357	0.010986	-0.14221	-0.2243	0.018463	-0.08728	-0.034485	-0.021667	0.023499	0.00061	0.01236	0.060272	0.00351	-0.040131
10.975	0.005951	0.007629	-0.083466	0.005951	0.015564	0.030518	0.22018	-0.00412	0.071259	0.019226	-0.10498	0.00473	0.30029	-0.11322	-0.16739	0.004578	0.036163	-0.16571	0.18524	0.069885	-0.24078	-0.28488	0.062256	-0.1738	-0.057068	-0.018463	-0.063324	-0.006256	0.057831	0.015869	-0.002289	-0.039368
10.976	0.004578	-0.000916	-0.038757	0.015411	0.011902	0.005646	0.26703	-0.002899	0.065613	0.053101	-0.097351	0.016174	0.67627	-0.064087	-0.2713	0.002594	0.025482	-0.18005	0.05722	0.15503	-0.31403	-0.24628	-0.011139	-0.15686	-0.039673	-0.013275	-0.002289	-0.002136	0.046692	0.000153	0.000305	-0.033722
10.977	0.005035	0.063019	-0.092926	0.015717	0.012207	-0.002899	0.28168	-0.001678	0.064392	0.055237	0.10971	0.010223	-0.19775	-0.032806	-0.2533	-0.010529	-0.096588	-0.16052	-0.1683	0.11902	-0.050659	-0.046387	0.022278	-0.049896	-0.02121	-0.017395	0.048218	0	-0.086517	-0.049591	0.002441	-0.03418
10.978	0.001068	0.10315	-0.04837	0.007324	0.018005	0.014191	0.27618	-0.014343	0.054016	0.031128	0.18036	0.00473	-0.49179	-0.057678	-0.19836	-0.011749	-0.13641	-0.13351	0.000458	-0.010223	0.15747	0.010529	-0.001221	0.053406	-0.005188	-0.018311	0.1442	-0.001831	-0.084534	-0.060577	-0.000458	-0.031281
10.979	-0.005035	0.11017	0.1091	0.013123	-0.003815	0.011597	0.25635	-0.007935	0.046692	-0.007019	0.024872	0.015259	0.036316	-0.081787	-0.079041	0.000458	-0.12787	-0.10773	-0.51834	-0.023804	-0.094604	-0.068665	0.003052	-0.017853	-0.02182	-0.007324	0.1944	-0.000305	0.01236	-0.050964	0.001068	-0.029907
10.98	0.012054	0.12589	0.046234	0.022125	-0.007477	0.013428	0.24277	-0.014496	0.043945	-0.043335	-0.26398	0.006714	-0.035706	-0.009155	0.15595	0.000153	-0.080872	-0.082092	-0.63644	-0.027313	-0.039063	-0.10361	0.001526	0.096283	0.003204	-0.009003	-0.002899	-0.001373	0.10147	-0.074768	-0.001221	-0.027924
10.981	-0.000153	0.18143	0.001221	0.014038	0.025177	0.016174	0.31616	-0.010834	0.033569	-0.061035	-0.13428	0.010986	-0.21255	0.064545	0.36133	0.003815	-0.036469	-0.011902	-0.63385	-0.028992	0.29739	-0.1683	0.0383	0.10849	0.006714	-0.001526	-0.13153	0.002899	0.14786	-0.069733	0.000153	-0.024567
10.982	0.008545	0.19852	0.080109	0.020142	0.009613	0.017395	0.37369	-0.017548	0.053101	-0.081024	0.041962	0.007172	-0.066223	0.1535	0.44983	0.006561	0.007629	-0.066833	-0.28488	-0.043945	0.18677	-0.21622	0.083923	0.036011	-0.008698	-0.002594	-0.048981	0.000305	0.093079	-0.039978	-0.001221	-0.023499
10.983	0.005493	0.21469	0.10529	0.019989	0.019073	0.023193	0.41016	-0.027313	0.003204	-0.006256	-0.035095	0.002747	-0.075378	0.027618	0.14267	0.013123	0.014801	-0.056305	1.0135	-0.099487	0.023804	-0.21271	0.073242	-0.013885	0.003967	-0.006866	0.015259	0.000305	0.066986	-0.051117	0.001526	-0.015717
10.984	0.005798	0.20172	0.014343	0.019684	-0.012665	0.004425	0.49439	-0.010071	-0.045166	0.096741	-0.10803	0.009155	-0.011749	-0.047913	-0.16174	0.00351	0.022888	-0.12222	1.0266	-0.038757	-0.13825	-0.18341	-0.002136	-0.015564	0.019836	-0.008698	-0.048218	-0.001526	0.085754	-0.096283	-0.001373	-0.01358
10.985	0.007019	0.21225	-0.084381	0.005341	-0.027313	0.009308	0.47348	-0.000916	-0.021515	0.096893	-0.004883	0.007019	-0.13031	-0.043945	-0.32715	0	0.020752	-0.066071	0.25314	0.11978	-0.24002	-0.24796	0.009766	-0.002747	0.009918	-0.025787	-0.004883	-0.001068	0.027313	-0.064392	-0.00412	-0.019531
10.986	0.006256	0.22293	0.049744	-0.00351	-0.015259	0.019836	0.34042	0.007324	0.041656	0.034485	0.0383	0.003662	0.041809	-0.14099	-0.3981	-0.011749	0.031281	-0.023041	0.001221	0.17349	-0.19791	-0.26794	0.085449	-0.057678	-0.009613	-0.036011	0.18707	-0.002136	-0.00946	-0.064545	-0.000305	-0.016785
10.987	0.006256	0.22598	0.15243	-0.003967	0.035248	0.028687	0.24582	0.021667	0.14206	-0.03418	0.009003	0.008392	0.11704	-0.014496	-0.29526	-0.004883	0.006714	0.045013	-0.28153	0.10864	-0.10513	-0.15854	0.066528	-0.030212	0.006866	-0.033722	0.12634	-0.001526	0.045929	-0.087433	-0.00351	-0.018616
10.988	0.000763	0.21973	0.062561	-0.010986	0.010071	0.014954	0.23682	0.037689	0.15915	0.006866	-0.054169	0.01297	0.008392	-0.13214	-0.076599	-0.001068	0.007935	0.005188	-0.51376	0.038452	-0.097504	-0.22079	0.015106	-0.087128	0.005951	-0.031891	0.068054	-0.001831	0.016327	-0.085907	-0.003662	-0.007172
10.989	0.010529	0.2327	0.071411	-0.001068	-0.012512	-0.060577	0.31235	0.022278	0.25009	0.08606	-0.084381	-0.005341	-0.036316	-0.27817	0.039368	-0.004425	0.003815	-0.054169	-0.084229	-0.044556	0.035553	-0.34363	-0.082245	-0.002594	0.010681	-0.03418	0.000153	-0.001373	-0.066071	-0.10269	-0.000305	-0.007935
10.99	0.017395	0.22781	0.085297	0.005646	0.039978	-0.058136	0.48904	-0.014038	0.17639	0.054016	-0.085602	0.002441	-0.032349	-0.18494	0.25421	-0.015411	0.009613	-0.003052	0.6102	-0.021057	0.19333	-0.41336	-0.088806	-0.037231	0.020294	-0.022583	-0.33752	-0.001831	-0.05188	-0.16419	-0.005188	-0.007477
10.991	0.00473	0.21423	0.072784	-0.002441	0.053711	-0.052948	0.56869	-0.018005	-0.010986	0.04364	-0.097198	0.002136	0.022278	-0.011749	0.43823	-0.002747	0.011139	-0.02594	0.58899	0.011749	-0.046234	-0.39551	-0.096893	-0.086517	0.02121	-0.02121	-0.4628	-0.002136	-0.011902	-0.12787	-0.003815	-0.009003
10.992	0.01297	0.1593	0.083618	0.005798	0.034637	-0.027771	0.45227	-0.008545	-0.089722	0.023499	-0.15121	0.009766	0.13489	0.072632	0.074463	0.001373	0.010223	-0.058289	0.023041	-0.00885	-0.19745	-0.41885	-0.15488	-0.080109	0.012665	-0.016174	-0.11581	-0.002136	0.07019	-0.072937	-0.001831	-0.016632
10.993	0.00824	0.1889	0.14954	0.007935	0.023193	-0.035706	0.33768	-0.007477	-0.026245	-0.007172	-0.039978	0.004425	0.10498	0.15991	0.044556	0.004578	0.009766	-0.024109	-0.056152	-0.02655	-0.18845	-0.35431	-0.22324	-0.103	0.001526	-0.014801	0.21057	-0.00061	0.22003	-0.061798	-0.005341	-0.006866
10.994	-0.000763	0.14435	0.055237	-0.003204	0.023193	-0.034943	0.44235	-0.009613	0.031738	0.022736	0.27512	0.011749	0.07782	0.1947	0.24597	0.000153	0.002136	-0.03067	-0.13351	-0.054626	0.1236	-0.31433	-0.11627	-0.10544	0.028839	-0.016479	0.38177	-0.000916	0.087738	-0.084229	-0.001526	-0.010071
10.995	0.030365	0.15152	0.045776	-0.003052	0.013733	-0.032043	0.36484	0.00351	0.033112	0.04776	0.29251	0.01236	0.036621	0.11871	0.18646	-0.005188	-0.010986	-0.004578	-0.18036	-0.008087	0.051727	-0.096741	2.1625	-0.020905	0.039368	-0.016785	0.37262	0.000763	0.215	-0.10208	-0.002441	-0.007019
10.996	-0.023346	0.14587	0.11948	-0.003204	-0.001526	0.019531	0.31616	-0.002289	0.097504	0.062103	0.17716	0.002441	0.02655	0.032806	-0.18601	-0.011902	-0.00473	0.010223	-0.27817	0.002899	0.022125	0.12268	2.8867	-0.005341	0.015106	-0.017242	0.41992	0.001526	0.11185	-0.10254	-0.001526	-0.009308
10.997	-0.040283	0.15045	0.076141	0.012054	-0.047455	0.039215	0.31158	-0.006714	0.17471	0.06485	0.069733	0.018311	0.056458	0.08194	-0.30472	-0.022888	0.024872	0.013733	-0.15961	0.016479	0.046082	0.069122	1.987	-0.007782	0.033264	-0.026855	0.20142	-0.001068	-0.21805	-0.083466	-0.005646	-0.005798
10.998	0.009766	0.13092	0.12375	0.009613	-0.071106	0.042877	0.4248	0.003204	0.11993	0.062561	0.025787	0.001984	0.10452	0.038605	-0.25314	-0.00412	0.046844	0.027466	0.20935	0.022125	0.008392	-0.056305	-4.1559	0.011902	0.072327	-0.033569	0.42099	0.002441	-0.32623	0.065765	0.000458	-0.009155
10.999	-0.010681	0.12573	0.16495	0.015106	-0.040894	-0.008545	0.45929	0.007324	0.042267	0.052185	0.011139	0.008698	-0.032806	-0.062103	-0.24216	-0.010529	0.044861	0.015259	0.59097	0.001984	0.019073	-0.12314	1.8539	-0.049286	0.070496	-0.032806	0.38773	-0.001526	-0.02243	0.053558	0.095062	-0.0383
11	0.012817	0.15381	0.12543	0.006104	0.075073	-0.064697	0.44922	0.006104	0.049744	0.031281	0.029907	0.009613	0.03067	-0.043335	0.018463	-0.001984	-0.007629	0.06012	0.25665	-0.007172	-0.014648	-0.11826	1.0562	-0.023041	0.086975	-0.032196	0.17822	-0.000458	0.28839	-0.16937	0.13489	-0.050049
11.001	0.007172	0.16342	0.045471	0.009918	0.089417	-0.006561	0.46875	0.011292	0.025024	0.030212	0.046387	0.005341	0.093994	0.035706	0.16007	-0.007477	-0.03067	0.091553	-0.56473	0.023804	-0.23178	-0.12756	0.31189	-0.030975	0.057068	-0.037537	-0.084991	-0.005798	0.62103	-0.215	0.13534	-0.03891
11.002	0.007629	0.16098	0.029144	-0.006256	0.062714	0.065155	0.44815	0.008545	-0.001526	0.049133	0.1088	0.012054	-0.15732	0.018768	0.2179	-0.004578	-0.038147	0.10284	-0.85388	0.014343	-0.2533	-0.086365	-0.3656	-0.032349	0.071106	-0.049591	-0.50827	-0.000458	0.30868	-0.12466	0.12268	-0.029907
